# xmcd
#
# Track frame offsets: 
#        150
#        6881
#        22011
#        38292
#        46545
#        67577
#        78902
#        90500
#        105648
#        121027
#        137027
#        150037
#        162207
#        172491
#        188879
#        200309
#        215487
#        230979
#        246601
#        253106
#        262986
#        284118
#        295551
#        306895
#        323651
#
# Disc length: 4496 seconds
#
# Revision: 2
# Processed by: cddbd v1.5.2PL0 Copyright (c) Steve Scherf et al.
# Submitted via: ExactAudioCopyFreeDBPlugin 1.0
#
DISCID=50118e19
DTITLE=Aretha Franklin - Yeah!!!:  In Person with Her Quartet
DYEAR=1965
DGENRE=Soul
TTITLE0=This Could Be the Start of Something
TTITLE1=Once in a Lifetime
TTITLE2=Misty
TTITLE3=More
TTITLE4=There is No Greater Love
TTITLE5=Muddy Water
TTITLE6=If I Had a Hammer
TTITLE7=Impossible
TTITLE8=Today I Love Ev'rybody
TTITLE9=Without the One You Love
TTITLE10=Trouble in Mind
TTITLE11=Love for Sale
TTITLE12=Bill Bailey, Won't You Please Come Home (bonus track)
TTITLE13=Misty (studio bonus track)
TTITLE14=Love for Sale (studio bonus track)
TTITLE15=Once in a Lifetime (studio bonus track)
TTITLE16=Today I Love Ev'rybody (studio bonus track)
TTITLE17=Impossible (studio bonus track)
TTITLE18=This Could Be the Start of Something (studio bonus track)
TTITLE19=More (studio bonus track)
TTITLE20=There is No Greater Love (studio bonus track)
TTITLE21=If I Had a Hammer (studio bonus track)
TTITLE22=Muddy Water (studio bonus track)
TTITLE23=Without the One You Love (studio bonus track)
TTITLE24=Trouble in Mind (studio bonus track)
EXTD=
EXTT0=
EXTT1=
EXTT2=
EXTT3=
EXTT4=
EXTT5=
EXTT6=
EXTT7=
EXTT8=
EXTT9=
EXTT10=
EXTT11=
EXTT12=
EXTT13=
EXTT14=
EXTT15=
EXTT16=
EXTT17=
EXTT18=
EXTT19=
EXTT20=
EXTT21=
EXTT22=
EXTT23=
EXTT24=
PLAYORDER=
